<mxfile host="app.diagrams.net" modified="2024-04-14T12:29:01.668Z" agent="Mozilla/5.0 (Macintosh; Intel Mac OS X 10_15_7) AppleWebKit/537.36 (KHTML, like Gecko) Chrome/123.0.0.0 Safari/537.36" etag="-0enpgaIEgu15RE62jsx" version="24.2.5" type="device">
  <diagram name="Page-1" id="qIMO1loBdaErSZjPD5Sj">
    <mxGraphModel dx="866" dy="549" grid="1" gridSize="10" guides="1" tooltips="1" connect="1" arrows="1" fold="1" page="1" pageScale="1" pageWidth="850" pageHeight="1100" math="0" shadow="0">
      <root>
        <mxCell id="0" />
        <mxCell id="1" parent="0" />
        <mxCell id="iCErhTpG076aduptsxyW-3" value="" style="edgeStyle=orthogonalEdgeStyle;rounded=0;orthogonalLoop=1;jettySize=auto;html=1;fontSize=14;" edge="1" parent="1" source="iCErhTpG076aduptsxyW-1" target="iCErhTpG076aduptsxyW-2">
          <mxGeometry relative="1" as="geometry" />
        </mxCell>
        <mxCell id="iCErhTpG076aduptsxyW-1" value="Next Frontend" style="rounded=1;whiteSpace=wrap;html=1;fontSize=14;" vertex="1" parent="1">
          <mxGeometry x="130" y="190" width="120" height="60" as="geometry" />
        </mxCell>
        <mxCell id="iCErhTpG076aduptsxyW-5" value="" style="edgeStyle=orthogonalEdgeStyle;rounded=0;orthogonalLoop=1;jettySize=auto;html=1;fontSize=14;" edge="1" parent="1" source="iCErhTpG076aduptsxyW-2" target="iCErhTpG076aduptsxyW-4">
          <mxGeometry relative="1" as="geometry" />
        </mxCell>
        <mxCell id="iCErhTpG076aduptsxyW-2" value="Express Js Backend" style="whiteSpace=wrap;html=1;rounded=1;fontSize=14;" vertex="1" parent="1">
          <mxGeometry x="330" y="190" width="120" height="60" as="geometry" />
        </mxCell>
        <mxCell id="iCErhTpG076aduptsxyW-4" value="Google Cloud&amp;nbsp;&lt;div style=&quot;font-size: 14px;&quot;&gt;BigQuery&lt;/div&gt;" style="whiteSpace=wrap;html=1;rounded=1;fontSize=14;" vertex="1" parent="1">
          <mxGeometry x="530" y="190" width="120" height="60" as="geometry" />
        </mxCell>
        <mxCell id="iCErhTpG076aduptsxyW-6" value="Approach 1" style="text;html=1;align=center;verticalAlign=middle;whiteSpace=wrap;rounded=0;fontSize=25;" vertex="1" parent="1">
          <mxGeometry x="70" y="90" width="190" height="30" as="geometry" />
        </mxCell>
        <mxCell id="iCErhTpG076aduptsxyW-7" value="Approach 2" style="text;html=1;align=center;verticalAlign=middle;whiteSpace=wrap;rounded=0;fontSize=25;" vertex="1" parent="1">
          <mxGeometry x="70" y="310" width="190" height="30" as="geometry" />
        </mxCell>
        <mxCell id="iCErhTpG076aduptsxyW-8" value="" style="edgeStyle=orthogonalEdgeStyle;rounded=0;orthogonalLoop=1;jettySize=auto;html=1;fontSize=14;" edge="1" source="iCErhTpG076aduptsxyW-9" target="iCErhTpG076aduptsxyW-11" parent="1">
          <mxGeometry relative="1" as="geometry" />
        </mxCell>
        <mxCell id="iCErhTpG076aduptsxyW-9" value="Next Frontend" style="rounded=1;whiteSpace=wrap;html=1;fontSize=14;" vertex="1" parent="1">
          <mxGeometry x="120" y="410" width="120" height="60" as="geometry" />
        </mxCell>
        <mxCell id="iCErhTpG076aduptsxyW-10" value="" style="edgeStyle=orthogonalEdgeStyle;rounded=0;orthogonalLoop=1;jettySize=auto;html=1;fontSize=14;" edge="1" source="iCErhTpG076aduptsxyW-11" target="iCErhTpG076aduptsxyW-12" parent="1">
          <mxGeometry relative="1" as="geometry" />
        </mxCell>
        <mxCell id="iCErhTpG076aduptsxyW-11" value="Google Lookup Studio" style="whiteSpace=wrap;html=1;rounded=1;fontSize=14;" vertex="1" parent="1">
          <mxGeometry x="320" y="410" width="120" height="60" as="geometry" />
        </mxCell>
        <mxCell id="iCErhTpG076aduptsxyW-12" value="Google Cloud&amp;nbsp;&lt;div style=&quot;font-size: 14px;&quot;&gt;BigQuery&lt;/div&gt;" style="whiteSpace=wrap;html=1;rounded=1;fontSize=14;" vertex="1" parent="1">
          <mxGeometry x="520" y="410" width="120" height="60" as="geometry" />
        </mxCell>
      </root>
    </mxGraphModel>
  </diagram>
</mxfile>
